<?xml version="1.0" encoding="utf-8"?>
<!-- Generator: Adobe Illustrator 24.0.0, SVG Export Plug-In . SVG Version: 6.00 Build 0)  -->
<svg version="1.1" xmlns="http://www.w3.org/2000/svg" xmlns:xlink="http://www.w3.org/1999/xlink" x="0px" y="0px"
	 viewBox="0 0 610.9 297.04" style="enable-background:new 0 0 610.9 297.04;" xml:space="preserve">
<style type="text/css">
	.st0{fill:#FFFFFF;}
	.st1{display:none;}
</style>
<g id="Layer_1">
	<g>
		<path class="st0" d="M267.38,36.61l15.88,15.22c5.77-1.09,11.72-1.67,17.81-1.67c6.08,0,12.03,0.58,17.81,1.67l15.88-15.22
			c-10.66-3.28-21.97-5.06-33.68-5.06C289.34,31.55,278.03,33.32,267.38,36.61z"/>
		<path class="st0" d="M289.74,58.05l11.32,10.85l11.32-10.85c-3.71-0.48-7.48-0.73-11.32-0.73
			C297.23,57.33,293.45,57.58,289.74,58.05z"/>
		<polygon class="st0" points="361.67,18.92 361.67,18.92 361.67,18.92 		"/>
		<path class="st0" d="M328.55,7.91c-8.89-1.76-18.08-2.7-27.48-2.7c-9.4,0-18.59,0.93-27.48,2.7c-6.9,1.37-13.63,3.24-20.13,5.59
			c-2.44,0.88-4.84,1.83-7.22,2.83l14.84,14.22c12.54-4.35,26-6.73,40-6.73c14,0,27.46,2.38,40,6.73l14.84-14.22
			c-2.38-1.01-4.78-1.95-7.22-2.83C342.18,11.15,335.45,9.28,328.55,7.91z"/>
		<polygon class="st0" points="240.46,18.92 240.46,18.92 240.46,18.92 		"/>
	</g>
	<g>
		<path class="st0" d="M361.67,18.92L361.67,18.92l-60.61,58.11l-60.61-58.11l0,0c-1.78,0.85-3.54,1.75-5.29,2.67l63.1,60.89v71.24
			l-30.13,11.28c-1.26,0.47-2.01,1.78-1.77,3.11c0.24,1.33,1.4,2.3,2.75,2.3H333c0,0,0.01,0,0.01,0c1.54,0,2.79-1.25,2.79-2.79
			c0-1.25-0.83-2.32-1.97-2.67l-29.98-11.22V82.47l63.1-60.88C365.21,20.67,363.45,19.77,361.67,18.92z M317.57,164.82h-33.02
			l16.51-6.18L317.57,164.82z"/>
	</g>
	<g>
		<path class="st0" d="M38.9,292.69H3.88c0,0-0.44-2.72,3.81-7.83c3.37-3.8,7.61-0.22,7.61-0.22l-0.76-42.41
			c0,0-1.63-6.42-2.94-4.35c-1.41,2.06-5-0.54-5-0.54l-1.3-5.33l19.47-4.79c7.39-1.85,13.38-2.17,21.21,1.52
			c3.15,1.41,7.83,5.66,10.44,13.16c4.02,11.53,4.02,22.73,0.87,31.21C52.06,287.69,38.9,292.69,38.9,292.69z M49.01,273.22
			c-0.33-5.22-1.52-11.75-2.5-17.83c-1.74-10.11-3.37-19.79-8.92-23.38c-3.7-2.39-10.55-1.09-10.44-1.09
			c-2.07,10.98-4.35,37.52-4.78,54.81c0,0,8.92,3.7,13.27,3.7s9.57-4.13,12.29-8.05c1.09-1.63,1.3-4.57,1.09-8.26V273.22z"/>
		<path class="st0" d="M116.01,286.27c-2.28,2.28-2.07,6.42-2.07,6.42h-5.55c0,0-8.7-4.13-10.33-9.03
			c-1.3-4.13,2.28-22.62-5.44-24.14c-3.7,0.87-9.46,0.33-9.46,0.33l-0.22,26.53l8.81,2.83l-0.54,3.48H68.48c0,0-1.41-2.07,0-5.44
			c1.41-3.26,6.31-1.2,6.31-1.2l-1.2-45.35c0,0-0.65-7.5-2.18-8.59c-1.63-0.98-3.7,0.76-3.7,0.76l-1.96-9.35l13.27,1.63
			c8.92,1.09,20.34-0.43,23.49,0.98c5.55,2.61,10.33,12.4,8.7,20.34c-1.63,8.05-11.74,10.22-11.74,10.22s8.81,2.28,9.79,6.52
			c0.98,4.24-1.74,12.94,0.33,17.29c0.87,1.85,2.83,3.15,2.83,3.15c0.76,0.22,1.96-0.33,5.55-3.26l0.98,2.94
			C118.94,283.34,118.29,283.99,116.01,286.27z M102.09,246.36c-1.41-3.26-4.57-13.38-8.16-15.01c-3.7-1.63-10.33,0-10.33,0
			l-0.54,24.36c0,0,10.77-0.11,13.38-2.39c2.61-2.28,6.96-3.59,5.66-6.85V246.36z"/>
		<path class="st0" d="M123.3,218.63c-1.63-1.63-3.81-2.83-3.81-2.83s0,3.37-1.31,4.13c-1.3,0.65-4.68-0.76-6.09-4.57
			c-1.3-3.7,2.28-5.55,7.29-2.94c5.11,2.5,8.27,9.35,8.27,9.35S124.82,220.15,123.3,218.63z M120.69,292.58v-1.63
			c0,0,7.94-4.57,8.26-7.39c1.41-12.62,0.44-36.54-0.33-45.67c0,0-4.46,3.8-6.42-1.09c-0.98-2.5,0.98-2.17,0.98-4.78
			c0-2.5-2.17-5.33-2.17-5.33l25.01-0.33v4.46c0,0-3.91-1.74-6.74,2.17c-2.83,3.92,0.33,6.09,0.22,6.09
			c-1.41,8.7-2.61,35.34,0.43,47.2l6.09,1.09l0.44,5.22H120.69z M137.55,206.02c0.65,2.72-2.18,5.76-3.15,8.92
			c-0.87,3.15-0.22,6.2-0.22,6.2l-0.98,1.31c0,0-0.33-5-0.33-6.85c0-1.85-1.52-4.68-2.18-6.2c-0.76-1.63,0.33-3.26,2.18-5.44
			c1.85-2.07,4.13-0.54,4.78,2.17L137.55,206.02z M146.57,214.28c0,0-3.15,1.74-4.57,2.94c-1.3,1.2-5.65,5-5.65,5
			s4.78-10.33,7.39-12.5c2.5-2.18,3.92-2.5,7.18-1.52c3.26,0.87,4.46,5.22,1.52,7.72C149.62,218.41,146.47,214.28,146.57,214.28z"/>
		<path class="st0" d="M209.22,292.69h-20.44c0,0-9.9-15.12-12.18-21.75c-2.39-6.74-13.16-31.43-13.16-31.43s-0.33,4.79-0.22,16.31
			c0.11,11.64,0.33,31.1,0.33,31.1l11.64,1.52l2.61,4.24h-27.08l-2.28-6.31c0,0,7.39,2.28,8.92-0.76
			c1.52-3.05,0.11-43.94-0.98-47.31c-0.98-3.48-5.11,1.74-5.11,1.74l-2.5-5.44l20.23-13.38c0,0,16.42,38.06,19.68,43.5
			c2.5,4.13,7.07,14.68,7.07,14.68l-2.72-53.4c-3.91-1.52-5.76-1.85-10.22-1.3c0,0,0.22-2.28-0.22-5.55
			c2.94,2.07,6.2,2.17,9.46,2.83c4.57,0.87,8.92-3.37,13.59,0.76c5,4.57,0,13.49-3.7,7.5c-1.2-1.96-1.63-2.39-2.39-3.59l-1.74-0.33
			l3.59,60.47l8.27,2.83L209.22,292.69z"/>
		<path class="st0" d="M259.69,292.69h-7.07c0,0-6.42-1.52-9.46-4.68c-2.94-3.16-10.77-27.62-10.77-27.62l-3.92,1.52
			c0,0-0.22,19.79,0.76,22.84c0.87,2.94,5.87,1.31,5.87,1.31l-0.65,6.63H215.1l1.31-5.33c0,0,4.24,0,5.33-2.72
			c0.98-2.61-1.74-42.41-1.74-46c0-3.7,0.33-3.05-0.65-6.09c-0.87-2.94-4.68-0.54-4.68-0.54l1.41-6.96l21.97,3.37
			c0,0,0.33,3.26-2.17,5.22c-2.39,1.96-5.55-0.33-5.55-0.33l-2.18,23.82c0,0,4.02-1.41,8.7-5c3.81-2.83,12.83-13.92,13.16-17.83
			c0.33-3.91-6.96-2.28-6.96-2.17c0,0,12.07-10.66,16.31-10.22c4.24,0.32,4.89,5.22,3.37,9.9c-2.61,7.83-22.62,24.9-22.73,24.9
			c0,0,10.66,22.73,14.79,25.77c4.24,2.94,7.83-10.55,7.83-10.55l2.28,1.96L259.69,292.69z"/>
		<path class="st0" d="M323.31,234.07l-18.05,30.78l-0.11,24.69c0,0,2.94-5.22,6.63-1.31c1.09,1.09,0,4.46,0,4.46h-26.75
			l-2.61-10.44l2.61-1.52c0,0-0.22,4.78,4.02,5.98c4.24,1.31,5.22-1.31,5.22-6.42c0-5-0.33-14.14-0.22-14.14
			c0,0-17.29-31.97-18.92-33.17c-1.63-1.41-3.7-2.72-3.7-2.72l1.41-3.7l25.67,0.65l0.22,3.48c0,0-7.61,0.22-7.94,2.61
			c-0.33,2.39,11.75,24.58,11.75,24.58l13.92-23.05c0,0-4.24-4.13-6.2-4.46c-2.07-0.22-4.02-0.87-4.02-0.87l0.65-3.91
			c0,0,14.57,0.33,18.81,3.26C329.94,231.79,323.31,234.07,323.31,234.07z"/>
		<path class="st0" d="M409.89,277.14c-0.98,2.07-0.11,15.55-0.11,15.55h-45.89l0.44-3.7l6.74-0.33c0,0,1.63-3.26,2.07-5.22
			c0.33-1.96,0-44.8-2.72-47.41c-2.61-2.61-4.57-1.31-4.57-1.31l1.31-11.96l22.73-0.33l-0.65,3.05l-6.53,3.91
			c0,0-1.96,47.52-1.63,50.57c0.33,2.94,0.22,7.29,0.22,7.29l21.1-2.61c0,0,0.22-13.38,4.13-15.88c3.92-2.39,5.66-0.54,5.66-0.54
			S410.87,275.07,409.89,277.14z"/>
		<path class="st0" d="M419.68,218.63c-1.63-1.63-3.81-2.83-3.81-2.83s0,3.37-1.31,4.13c-1.3,0.65-4.68-0.76-6.09-4.57
			c-1.3-3.7,2.28-5.55,7.29-2.94c5.11,2.5,8.27,9.35,8.27,9.35S421.2,220.15,419.68,218.63z M417.07,292.58v-1.63
			c0,0,7.94-4.57,8.26-7.39c1.41-12.62,0.44-36.54-0.33-45.67c0,0-4.46,3.8-6.42-1.09c-0.98-2.5,0.98-2.17,0.98-4.78
			c0-2.5-2.17-5.33-2.17-5.33l25.01-0.33v4.46c0,0-3.91-1.74-6.74,2.17c-2.83,3.92,0.33,6.09,0.22,6.09
			c-1.41,8.7-2.61,35.34,0.43,47.2l6.09,1.09l0.44,5.22H417.07z M433.93,206.02c0.65,2.72-2.18,5.76-3.15,8.92
			c-0.87,3.15-0.22,6.2-0.22,6.2l-0.98,1.31c0,0-0.33-5-0.33-6.85c0-1.85-1.52-4.68-2.18-6.2c-0.76-1.63,0.33-3.26,2.18-5.44
			c1.85-2.07,4.13-0.54,4.78,2.17L433.93,206.02z M442.95,214.28c0,0-3.15,1.74-4.57,2.94c-1.3,1.2-5.65,5-5.65,5
			s4.78-10.33,7.39-12.5c2.5-2.18,3.92-2.5,7.18-1.52c3.26,0.87,4.46,5.22,1.52,7.72C446,218.41,442.84,214.28,442.95,214.28z"/>
		<path class="st0" d="M505.59,292.69h-20.44c0,0-9.9-15.12-12.18-21.75c-2.39-6.74-13.16-31.43-13.16-31.43s-0.33,4.79-0.22,16.31
			c0.11,11.64,0.33,31.1,0.33,31.1l11.64,1.52l2.61,4.24h-27.08l-2.28-6.31c0,0,7.4,2.28,8.92-0.76c1.52-3.05,0.11-43.94-0.98-47.31
			c-0.98-3.48-5.11,1.74-5.11,1.74l-2.5-5.44l20.23-13.38c0,0,16.42,38.06,19.68,43.5c2.5,4.13,7.07,14.68,7.07,14.68l-2.72-53.4
			c-3.91-1.52-5.76-1.85-10.22-1.3c0,0,0.22-2.28-0.22-5.55c2.94,2.07,6.2,2.17,9.46,2.83c4.57,0.87,8.92-3.37,13.59,0.76
			c5,4.57,0,13.49-3.7,7.5c-1.2-1.96-1.63-2.39-2.39-3.59l-1.74-0.33l3.59,60.47l8.27,2.83L505.59,292.69z"/>
		<path class="st0" d="M556.06,292.69h-7.07c0,0-6.42-1.52-9.46-4.68c-2.94-3.16-10.77-27.62-10.77-27.62l-3.92,1.52
			c0,0-0.22,19.79,0.76,22.84c0.87,2.94,5.87,1.31,5.87,1.31l-0.65,6.63h-19.36l1.31-5.33c0,0,4.24,0,5.33-2.72
			c0.98-2.61-1.74-42.41-1.74-46c0-3.7,0.33-3.05-0.65-6.09c-0.87-2.94-4.68-0.54-4.68-0.54l1.41-6.96l21.97,3.37
			c0,0,0.33,3.26-2.17,5.22c-2.39,1.96-5.55-0.33-5.55-0.33l-2.18,23.82c0,0,4.02-1.41,8.7-5c3.81-2.83,12.83-13.92,13.16-17.83
			c0.33-3.91-6.96-2.28-6.96-2.17c0,0,12.07-10.66,16.31-10.22c4.24,0.32,4.89,5.22,3.37,9.9c-2.61,7.83-22.62,24.9-22.73,24.9
			c0,0,10.66,22.73,14.79,25.77c4.24,2.94,7.83-10.55,7.83-10.55l2.28,1.96L556.06,292.69z"/>
		<path class="st0" d="M605.55,254.41l-2.61,0.76c0,0,0.43-11.31-1.74-15.12c-2.07-3.92-5.22-9.9-9.57-9.9s-7.61,2.5-9.79,6.74
			c-2.28,4.35-3.59,10.55-0.98,13.48c2.61,2.94,11.53,4.57,14.14,5.98c2.61,1.41,6.31,1.41,8.92,3.26
			c2.61,1.96,7.5,12.51,4.57,21.42c-2.94,8.92-7.18,11.64-7.94,11.64c-0.65,0-23.38,0-23.27,0c0,0-5.76-9.57-7.94-12.94
			c-2.18-3.26-2.39-9.24,1.2-11.42c3.7-2.28,4.24-1.74,9.24-0.43c5,1.41,1.96,6.96,0.43,10.33c-1.63,3.26-5.98,0-5.98,0
			s5,7.61,6.2,8.16c1.31,0.54,4.24,4.57,7.29,3.91c2.94-0.65,6.63-4.46,6.96-6.85c0.33-2.39,4.13-9.57-1.63-14.9
			c-5.87-5.22-14.57-5.98-18.49-10.44c-3.15-3.7-11.2-10.11-4.89-22.29c6.31-12.18,10.66-12.62,17.51-13.05
			c6.85-0.33,11.42,3.15,12.51,4.35c0.98,1.3,3.91,9.9,3.91,9.9l1.31-10.22c0,0-6.31-0.33-3.37-3.37c2.94-2.94,8.59,3.91,8.59,3.91
			L605.55,254.41z"/>
	</g>
</g>
<g id="parts_and_pieces" class="st1">
</g>
</svg>
